<?xml version="1.0" standalone="no"?>
<!DOCTYPE svg PUBLIC "-//W3C//DTD SVG 20010904//EN"
 "http://www.w3.org/TR/2001/REC-SVG-20010904/DTD/svg10.dtd">
<svg version="1.0" xmlns="http://www.w3.org/2000/svg"
 width="662.000000pt" height="662.000000pt" viewBox="0 0 662.000000 662.000000"
 preserveAspectRatio="xMidYMid meet">
<metadata>
Created by potrace 1.14, written by Peter Selinger 2001-2017
</metadata>
<g transform="translate(0.000000,662.000000) scale(0.100000,-0.100000)"
fill="#000000" stroke="none">
<path d="M3088 6345 c-2 -2 -34 -6 -73 -10 -38 -3 -81 -8 -95 -10 -14 -3 -47
-7 -75 -10 -27 -4 -57 -8 -65 -10 -8 -2 -31 -7 -50 -10 -70 -12 -248 -58 -352
-91 -678 -218 -1264 -675 -1646 -1284 -188 -300 -328 -648 -397 -985 -25 -126
-34 -182 -51 -325 -10 -80 -12 -483 -3 -560 4 -41 11 -100 14 -130 6 -47 35
-219 49 -285 58 -277 214 -655 379 -921 51 -83 182 -272 196 -284 4 -3 26 -30
51 -60 243 -298 592 -579 945 -760 224 -115 517 -223 715 -264 14 -3 36 -7 50
-10 75 -17 215 -39 330 -53 19 -2 134 -5 255 -7 200 -4 321 2 438 20 23 3 54
7 69 9 24 4 111 19 163 29 117 23 416 113 498 150 18 8 70 31 117 51 155 66
329 165 497 281 102 70 98 67 203 156 163 137 282 255 390 388 25 30 52 63 61
73 32 36 128 173 189 271 124 196 247 461 315 676 53 168 87 317 119 530 27
176 28 645 2 785 -2 11 -7 43 -10 70 -54 382 -210 806 -427 1153 -55 90 -219
317 -238 332 -3 3 -21 23 -40 45 -77 91 -209 222 -334 332 -71 64 -256 199
-359 263 -299 187 -724 354 -1031 405 -17 3 -57 10 -88 15 -30 6 -82 13 -115
16 -32 3 -70 8 -84 11 -27 6 -506 13 -512 8z m1539 -1578 l28 -27 2 -330 3
-329 -34 -35 c-28 -31 -40 -36 -77 -36 -24 0 -212 -1 -416 -1 l-373 0 -1 -22
c0 -12 0 -578 0 -1257 0 -810 -4 -1246 -10 -1267 -6 -18 -22 -42 -36 -53 -25
-19 -40 -20 -395 -20 -362 0 -371 0 -400 21 -17 12 -35 34 -42 49 -8 20 -11
365 -10 1288 l1 1261 -413 0 c-453 0 -448 -1 -473 60 -8 19 -11 125 -9 352 3
347 2 337 53 367 15 9 342 11 1297 9 l1278 -2 27 -28z"/>
</g>
</svg>
